<?xml version="1.0" encoding="UTF-8" standalone="no" ?>
<!DOCTYPE svg PUBLIC "-//W3C//DTD SVG 1.1//EN" "http://www.w3.org/Graphics/SVG/1.1/DTD/svg11.dtd">
<svg
	xmlns="http://www.w3.org/2000/svg"
	xmlns:xlink="http://www.w3.org/1999/xlink" version="1.1" width="120" height="120" viewBox="0 0 120 120" xml:space="preserve">
	<defs></defs>
	<g transform="matrix(0.2 0 0 0.2 60.2 60.07)" id="svg_14"  >
		<path style="stroke: rgb(255,255,255); stroke-width: 10; stroke-dasharray: none; stroke-linecap: butt; stroke-dashoffset: 0; stroke-linejoin: miter; stroke-miterlimit: 4; fill: rgb(0,0,0); fill-opacity: 0; fill-rule: nonzero; opacity: 1;"  transform=" translate(-400.57, -376.09)" d="m 499.847 303.58908 c 0 0 17.51745 -72.42196 0 -96.95463 c -17.53809 -24.53268 -24.53269 -40.87404 -63.09585 -52.57298 s -24.51206 -9.3674 -52.55236 -8.17068 c -28.04031 1.17608 -51.41755 16.34136 -51.41755 24.51205 c 0 0 -17.51745 1.17608 -24.51206 8.19132 c -7.01523 7.01523 -18.69354 39.69796 -18.69354 47.88928 s 5.83915 63.09582 11.6783 74.77412 l -6.95334 2.33153 c -5.83915 67.73826 23.35661 75.92957 23.35661 75.92957 c 10.50222 63.09582 21.02507 36.23161 21.02507 52.57298 s -10.52285 10.52285 -10.52285 10.52285 s -9.32614 25.68813 -32.68274 35.03489 c -23.35661 9.32613 -153.01466 59.54694 -163.55814 70.06979 c -10.54349 10.54348 -9.34677 59.58821 -9.34677 59.58821 l 555.99864 0 c 0 0 1.21735 -49.04473 -9.32614 -59.58821 c -10.56412 -10.54348 -140.22217 -60.74366 -163.57877 -70.06979 c -23.35661 -9.34677 -32.68274 -35.03489 -32.68274 -35.03489 s -10.52285 5.81852 -10.52285 -10.52285 s 10.52285 10.52285 21.0457 -52.57298 c 0 0 29.17512 -8.19132 23.35661 -75.92957 l -7.01523 0 l 0 -0.00001 z" stroke-linecap="round" />
	</g>
</svg>