<?xml version="1.0" encoding="UTF-8" standalone="no" ?>
<!DOCTYPE svg PUBLIC "-//W3C//DTD SVG 1.1//EN" "http://www.w3.org/Graphics/SVG/1.1/DTD/svg11.dtd">
<svg
	xmlns="http://www.w3.org/2000/svg"
	xmlns:xlink="http://www.w3.org/1999/xlink" version="1.1" width="120" height="120" viewBox="0 0 120 120" xml:space="preserve">
	<defs></defs>
	<g transform="matrix(1 0 0 1 60 60.5)"  >
		<g style=""   >
			<g transform="matrix(1 0 0 1 14.5 3.50)"  >
				<path style="stroke: rgb(0,0,0); stroke-width: 2.7; stroke-dasharray: none; stroke-linecap: butt; stroke-dashoffset: 0; stroke-linejoin: miter; stroke-miterlimit: 4; fill: none; fill-rule: nonzero; opacity: 1;"  transform=" translate(-74.26, -53.61)" d="M 65.006 9.813 c 18.63 1.49 27.652 27.98 28.52 37.506 s 3.152 31.93 -6.641 42.257 c -9.793 10.328 -32.668 7.552 -32.748 7.33" stroke-linecap="round" />
			</g>
			<g transform="matrix(1 0 0 1 -14.5 3.50)"  >
				<path style="stroke: rgb(0,0,0); stroke-width: 2.7; stroke-dasharray: none; stroke-linecap: butt; stroke-dashoffset: 0; stroke-linejoin: miter; stroke-miterlimit: 4; fill: none; fill-rule: nonzero; opacity: 1;"  transform=" translate(-45.09, -53.49)" d="M 54.724 9.739 c -18.227 1.276 -27.266 27.62 -28.194 37.12 c -0.928 9.5 -3.346 31.844 6.144 42.266 c 9.49 10.422 31.878 7.912 31.957 7.69" stroke-linecap="round" />
			</g>
			<g transform="matrix(1 0 0 1 0 -40)"  >
				<path style="stroke: rgb(0,0,0); stroke-width: 2.7; stroke-dasharray: none; stroke-linecap: butt; stroke-dashoffset: 0; stroke-linejoin: miter; stroke-miterlimit: 4; fill: none; fill-rule: nonzero; opacity: 1;"  transform=" translate(-60, -9.89)" d="M 65.488 9.886 H 54.504" stroke-linecap="round" />
			</g>
			<g transform="matrix(1 0 0 1 0.14 1.19)"  >
				<path style="stroke: rgb(0,0,0); stroke-width: 2.16; stroke-dasharray: none; stroke-linecap: butt; stroke-dashoffset: 0; stroke-linejoin: miter; stroke-miterlimit: 4; fill: none; fill-rule: nonzero; opacity: NaN;"  transform=" translate(-60.14, -51.19)" d="M 94.316 52.205 c 4.36 5.28 3.965 4.191 4.57 1.436 c 0.605 -2.756 -1.35 -7.886 -2.278 -9.736 c -0.927 -1.85 -3.376 -2.636 -3.442 -2.763 c 0.066 0.126 0.914 9.962 0.848 9.835 M 26.16 57.015 c -3.736 5.848 -3.484 4.713 -4.498 2.07 c -1.014 -2.641 0.27 -7.998 0.961 -9.962 c 0.692 -1.963 3.1 -3.09 3.15 -3.224 c -0.05 0.135 0.475 9.993 0.525 9.858" stroke-linecap="round" />
			</g>
			<g transform="matrix(1 0 0 1 -0.94 -40)"  >
				<path style="stroke: rgb(0,0,0); stroke-width: 2.16; stroke-dasharray: none; stroke-linecap: butt; stroke-dashoffset: 0; stroke-linejoin: miter; stroke-miterlimit: 4; fill: none; fill-rule: nonzero; opacity: NaN;"  transform=" translate(-59.06, -10.08)" d="M 55.809 6.949 c 1.577 -3.152 3.548 -9.036 7.49 -0.42 M 79.099 16.25 C 67.727 6.251 63.1 6.251 63.032 6.09 M 39.015 18.118 C 51.016 6.688 55.898 6.688 55.97 6.506" stroke-linecap="round" />
			</g>
			<g transform="matrix(1 0 0 1 0.14 4.82)"  >
				<path style="stroke: rgb(0,0,0); stroke-width: 1.35; stroke-dasharray: none; stroke-linecap: butt; stroke-dashoffset: 0; stroke-linejoin: miter; stroke-miterlimit: 4; fill: none; fill-rule: nonzero; opacity: 1;"  transform=" translate(-60.14, -54.82)" d="M 91.94 38.147 c 26.322 0.704 26.135 13.148 26.322 16.435 c 0.188 3.287 2.257 15.496 -24.63 16.904 M 27.61 38.147 C 2.024 38.851 2.207 51.295 2.024 54.582 c -0.183 3.287 -2.193 15.496 23.94 16.904" stroke-linecap="round" />
			</g>
		</g>
	</g>
</svg>